<svg width="30" height="30" viewBox="0 0 30 30" fill="#008600" xmlns="http://www.w3.org/2000/svg">
<g clip-path="url(#clip0_1_2)">
<path d="M26.5992 23.295C22.3547 20.1591 21.6858 20.0334 19.6514 17.9991C18.098 16.4456 17.0377 15.3858 14.7698 13.1166C13.2984 11.6461 14.5655 7.95609 10.7405 4.12921C8.02219 1.41187 3.56531 -0.0843801 1.74 1.73906C-0.0857814 3.56484 1.41234 8.02359 4.12969 10.7414C7.95609 14.5659 11.6461 13.2984 13.1175 14.7703C15.3862 17.0381 16.4461 18.0984 17.9991 19.6523C20.0334 21.6867 20.1591 22.3561 23.2945 26.5997C24.8442 28.7006 26.3292 30.0366 28.1831 28.1827C30.0356 26.3302 28.6997 24.8452 26.5992 23.295ZM11.8786 11.4333C11.3156 11.9972 10.5267 12.2555 9.63281 12.248C9.5475 12.2269 9.46453 12.2086 9.37781 12.1875C10.6683 9.76124 9.85266 6.02109 7.32562 2.76421C8.4166 3.26944 9.4108 3.96158 10.2633 4.80937C11.8163 6.36234 12.5269 7.83796 12.6938 9.17343C12.8048 10.0692 12.4444 10.8675 11.8786 11.4333Z" fill="#008600"/>
</g>
<defs>
<clipPath id="clip0_1_2">
<rect width="30" height="30" fill="#008600"/>
</clipPath>
</defs>
</svg>
