<svg xmlns="http://www.w3.org/2000/svg" viewBox="0 0 76.07 76.09"><defs><style>.cls-1{fill:#454547;}</style></defs><g id="Layer_2" data-name="Layer 2"><g id="Layer_1-2" data-name="Layer 1"><path class="cls-1" d="M50.41,36.89a93.61,93.61,0,0,1,8.47,4.53A37.16,37.16,0,0,1,75.72,68a39.3,39.3,0,0,1,.35,4.73c.06,2.19-1.09,3.32-3.28,3.32q-19.7,0-39.41,0-15,0-30.08,0C1.12,76.08,0,75,0,72.77A38.06,38.06,0,0,1,25,37.46c.32-.11.62-.24,1-.39-5.75-4.53-8.71-10.37-8.38-17.68A19.77,19.77,0,0,1,23.93,5.64,20.51,20.51,0,1,1,50.41,36.89ZM70,70.19a32.11,32.11,0,0,0-64,0ZM23.41,20.46A14.64,14.64,0,1,0,38.12,5.86,14.7,14.7,0,0,0,23.41,20.46Z"/></g></g></svg>